<?xml version="1.0" standalone="no"?>
<!DOCTYPE svg PUBLIC "-//W3C//DTD SVG 20010904//EN"
 "http://www.w3.org/TR/2001/REC-SVG-20010904/DTD/svg10.dtd">
<svg version="1.0" xmlns="http://www.w3.org/2000/svg"
 width="315.000000pt" height="315.000000pt" viewBox="0 0 315.000000 315.000000"
 preserveAspectRatio="xMidYMid meet">
<metadata>
Created by potrace 1.14, written by Peter Selinger 2001-2017
</metadata>
<g transform="translate(0.000000,315.000000) scale(0.100000,-0.100000)"
fill="#000000" stroke="none">
<path d="M1253 2916 c-56 -14 -112 -30 -125 -37 -13 -7 -24 -11 -26 -9 -5 4
-129 -49 -192 -83 -49 -25 -156 -93 -170 -107 -3 -3 -26 -22 -53 -43 -47 -38
-138 -128 -167 -164 -8 -10 -32 -39 -53 -65 -75 -93 -164 -261 -201 -378 -10
-30 -20 -62 -23 -70 -3 -8 -8 -24 -10 -35 -2 -11 -8 -38 -14 -60 -29 -108 -32
-406 -6 -533 58 -272 180 -504 367 -693 210 -213 417 -324 735 -395 39 -9 181
-18 265 -18 140 1 247 20 400 71 203 67 387 181 535 330 73 74 171 198 206
263 8 14 16 27 19 30 13 12 97 207 106 243 1 4 3 9 4 12 1 3 3 8 4 13 2 4 8
27 15 52 7 25 15 56 17 70 2 14 6 34 9 45 18 82 24 302 11 397 -27 201 -104
410 -207 566 -16 24 -29 47 -29 53 0 5 -4 9 -8 9 -4 0 -16 14 -26 31 -37 62
-220 234 -322 302 -56 37 -105 67 -109 67 -5 0 -16 6 -24 14 -23 20 -193 85
-296 114 -81 23 -112 25 -310 28 -204 3 -227 2 -322 -20z"/>
</g>
</svg>
